<svg viewBox="-88 0 512 512" xmlns="http://www.w3.org/2000/svg"><path d="m264 0h-192c-4.417969 0-8 3.582031-8 8v48c0 4.417969 3.582031 8 8 8h192c4.417969 0 8-3.582031 8-8v-48c0-4.417969-3.582031-8-8-8zm0 0" fill="#c0c4ce"/><path d="m96 56v-48c0-4.417969 3.582031-8 8-8h-32c-4.417969 0-8 3.582031-8 8v48c0 4.417969 3.582031 8 8 8h32c-4.417969 0-8-3.582031-8-8zm0 0" fill="#abb1be"/><path d="m328 48h-320c-4.417969 0-8 3.582031-8 8v448c0 4.417969 3.582031 8 8 8h320c4.417969 0 8-3.582031 8-8v-448c0-4.417969-3.582031-8-8-8zm0 0" fill="#f4f5f7"/><path d="m40 480c-4.417969 0-8-3.582031-8-8v-424h-24c-4.417969 0-8 3.582031-8 8v448c0 4.417969 3.582031 8 8 8h320c4.417969 0 8-3.582031 8-8v-24zm0 0" fill="#eaebef"/><g fill="#8cdc91"><path d="m296 392h-256c-4.417969 0-8 3.582031-8 8v72c0 4.417969 3.582031 8 8 8h256c4.417969 0 8-3.582031 8-8v-72c0-4.417969-3.582031-8-8-8zm0 0"/><path d="m296 288h-256c-4.417969 0-8 3.582031-8 8v72c0 4.417969 3.582031 8 8 8h256c4.417969 0 8-3.582031 8-8v-72c0-4.417969-3.582031-8-8-8zm0 0"/><path d="m296 184h-256c-4.417969 0-8 3.582031-8 8v72c0 4.417969 3.582031 8 8 8h256c4.417969 0 8-3.582031 8-8v-72c0-4.417969-3.582031-8-8-8zm0 0"/><path d="m296 80h-256c-4.417969 0-8 3.582031-8 8v72c0 4.417969 3.582031 8 8 8h256c4.417969 0 8-3.582031 8-8v-72c0-4.417969-3.582031-8-8-8zm0 0"/></g><path d="m168 176c-57.347656 0-104 46.652344-104 104s46.652344 104 104 104 104-46.652344 104-104-46.652344-104-104-104zm0 0" fill="#f6e477"/><path d="m200 368c-57.347656 0-104-46.652344-104-104 0-34.269531 16.664062-64.71875 42.3125-83.675781-42.925781 12.808593-74.3125 52.640625-74.3125 99.675781 0 57.347656 46.652344 104 104 104 23.074219 0 44.417969-7.558594 61.6875-20.324219-9.414062 2.808594-19.375 4.324219-29.6875 4.324219zm0 0" fill="#f5e063"/><path d="m223.390625 260.9375c-1.238281-2.988281-4.15625-4.9375-7.390625-4.9375h-19.054688l10.210938-20.421875c2.613281-5.230469-1.320312-11.578125-7.15625-11.578125h-48c-3.03125 0-5.800781 1.710938-7.15625 4.421875l-24 48c-2.613281 5.230469 1.320312 11.578125 7.15625 11.578125h27.867188l-19.222657 44.847656c-1.386719 3.238282-.441406 7.109375 2.285157 9.339844 3.140624 2.574219 7.855468 2.339844 10.726562-.53125l72-72c2.289062-2.289062 2.972656-5.726562 1.734375-8.71875zm0 0" fill="#f4f5f7"/></svg>